<?xml version="1.0" encoding="UTF-8" standalone="no"?>
<!-- Created with Inkscape (http://www.inkscape.org/) -->

<svg
   width="234.38918"
   height="99.594109"
   viewBox="0 0 62.01547 26.350938"
   version="1.1"
   id="svg4595"
   inkscape:version="1.1.1 (3bf5ae0d25, 2021-09-20)"
   sodipodi:docname="vto_logo_txt.svg"
   xmlns:inkscape="http://www.inkscape.org/namespaces/inkscape"
   xmlns:sodipodi="http://sodipodi.sourceforge.net/DTD/sodipodi-0.dtd"
   xmlns="http://www.w3.org/2000/svg"
   xmlns:svg="http://www.w3.org/2000/svg"
   xmlns:rdf="http://www.w3.org/1999/02/22-rdf-syntax-ns#"
   xmlns:cc="http://creativecommons.org/ns#"
   xmlns:dc="http://purl.org/dc/elements/1.1/">
  <title
     id="title5460">vto_logo</title>
  <defs
     id="defs4589">
    <linearGradient
       id="linearGradient7038"
       inkscape:swatch="solid">
      <stop
         style="stop-color:#814381;stop-opacity:1;"
         offset="0"
         id="stop7036" />
    </linearGradient>
  </defs>
  <sodipodi:namedview
     id="base"
     pagecolor="#ffffff"
     bordercolor="#666666"
     borderopacity="1.0"
     inkscape:pageopacity="0.0"
     inkscape:pageshadow="2"
     inkscape:zoom="2.8284271"
     inkscape:cx="118.97072"
     inkscape:cy="56.038213"
     inkscape:document-units="px"
     inkscape:current-layer="layer1"
     showgrid="false"
     showborder="true"
     inkscape:pagecheckerboard="false"
     inkscape:window-width="1920"
     inkscape:window-height="1017"
     inkscape:window-x="-8"
     inkscape:window-y="-8"
     inkscape:window-maximized="1"
     inkscape:object-nodes="false"
     inkscape:showpageshadow="true"
     fit-margin-top="0"
     fit-margin-left="0"
     fit-margin-right="0"
     fit-margin-bottom="0"
     units="px">
    <inkscape:grid
       type="xygrid"
       id="grid5476"
       originx="-25.947751"
       originy="-141.14304" />
  </sodipodi:namedview>
  <metadata
     id="metadata4592">
    <rdf:RDF>
      <cc:Work
         rdf:about="">
        <dc:format>image/svg+xml</dc:format>
        <dc:type
           rdf:resource="http://purl.org/dc/dcmitype/StillImage" />
        <dc:title>vto_logo</dc:title>
      </cc:Work>
    </rdf:RDF>
  </metadata>
  <g
     inkscape:label="Layer 1"
     inkscape:groupmode="layer"
     id="layer1"
     transform="translate(-25.947746,-130.09306)">
    <path
       style="color:#000000;font-style:normal;font-variant:normal;font-weight:normal;font-stretch:normal;font-size:medium;line-height:normal;font-family:sans-serif;font-variant-ligatures:normal;font-variant-position:normal;font-variant-caps:normal;font-variant-numeric:normal;font-variant-alternates:normal;font-feature-settings:normal;text-indent:0;text-align:start;text-decoration:none;text-decoration-line:none;text-decoration-style:solid;text-decoration-color:#000000;letter-spacing:normal;word-spacing:normal;text-transform:none;writing-mode:lr-tb;direction:ltr;text-orientation:mixed;dominant-baseline:auto;baseline-shift:baseline;text-anchor:start;white-space:normal;shape-padding:0;clip-rule:nonzero;display:inline;overflow:visible;visibility:visible;opacity:1;isolation:auto;mix-blend-mode:normal;color-interpolation:sRGB;color-interpolation-filters:linearRGB;solid-color:#000000;solid-opacity:1;vector-effect:none;fill:#f2f2f2;fill-opacity:1;fill-rule:nonzero;stroke:none;stroke-width:0.264583;stroke-linecap:butt;stroke-linejoin:miter;stroke-miterlimit:4;stroke-dasharray:none;stroke-dashoffset:0;stroke-opacity:0.436782;color-rendering:auto;image-rendering:auto;shape-rendering:auto;text-rendering:auto;enable-background:accumulate"
       d="m 35.497068,130.09342 c -0.02497,-3.1e-4 -0.05118,0.002 -0.07828,0.005 -1.179035,0.16408 -2.654256,1.04644 -3.449939,2.50173 -0.350668,0.64135 -0.382918,1.52693 -0.253725,2.44772 0.129194,0.92078 0.423259,1.87851 0.743156,2.66641 1.09992,2.70912 2.988664,7.31603 3.360146,8.22655 0.01837,0.0451 0.142575,0.02 0.142368,-0.0288 -0.0048,-1.13145 -0.03047,-10.56474 -0.08478,-15.10711 -0.0017,-0.1357 0.003,-0.31256 -0.04873,-0.4632 -0.02585,-0.0753 -0.06857,-0.147 -0.138233,-0.19405 -0.05225,-0.0353 -0.117102,-0.0539 -0.191991,-0.0546 z m -6.122757,6.36634 c -0.07189,-0.006 -0.148435,0.0186 -0.223891,0.0751 -0.821036,0.61394 -1.569217,1.89238 -1.569309,3.32012 -4.2e-5,0.6292 0.340528,1.31012 0.817293,1.9504 0.476762,0.64027 1.092764,1.24002 1.658511,1.70086 1.945241,1.58449 5.267055,4.27137 5.922199,4.80317 0.03241,0.0262 0.115622,-0.0444 0.09541,-0.081 -0.469801,-0.85079 -4.375656,-7.94978 -6.288162,-11.35081 -0.05715,-0.1016 -0.126691,-0.23705 -0.227732,-0.32908 -0.05052,-0.046 -0.112412,-0.0822 -0.184312,-0.0887 z m -2.937764,6.80313 c -0.03184,0.002 -0.06369,0.009 -0.09392,0.0234 -0.06045,0.0285 -0.109784,0.0845 -0.143846,0.16498 -0.37086,0.87548 -0.374853,2.24779 0.288282,3.38866 0.292245,0.50279 0.880592,0.88726 1.558971,1.17535 0.678377,0.28811 1.449324,0.47828 2.11545,0.58129 2.290371,0.35415 6.192566,0.9439 6.963087,1.0617 0.03809,0.006 0.07186,-0.0897 0.03869,-0.10949 -0.770607,-0.45959 -7.189503,-4.30084 -10.297535,-6.12184 -0.09285,-0.0544 -0.21117,-0.12991 -0.334657,-0.15608 -0.03087,-0.007 -0.06268,-0.01 -0.09452,-0.008 z m 17.631906,0.94182 c -1.039492,-0.001 -2.809679,0.002 -3.159293,0.002 -0.01729,2e-5 -0.02588,0.0445 -0.0098,0.051 0.37268,0.15137 3.478146,1.4184 4.979078,2.0145 0.04481,0.0179 0.102395,0.0431 0.15891,0.0463 0.02826,0.002 0.05752,-0.002 0.08241,-0.0196 0.02494,-0.0167 0.04292,-0.0451 0.05258,-0.0831 0.105228,-0.41342 0.01456,-1.02188 -0.356218,-1.48246 -0.163528,-0.20304 -0.450096,-0.33352 -0.770329,-0.41513 -0.320223,-0.0816 -0.675052,-0.11357 -0.977384,-0.11394 z m -2.233009,1.14924 c -0.01659,0.006 -0.03535,0.0288 -0.02747,0.0412 0.242145,0.38404 2.256149,3.58904 3.240226,5.12333 0.02933,0.0459 0.06559,0.10701 0.115194,0.14718 0.02481,0.0201 0.05454,0.0355 0.08832,0.0365 0.03373,0.001 0.06854,-0.0128 0.102198,-0.0412 0.36639,-0.30879 0.680991,-0.92567 0.642434,-1.59165 -0.01706,-0.29351 -0.194191,-0.60187 -0.433901,-0.88753 -0.239699,-0.28565 -0.54329,-0.54851 -0.819657,-0.74806 -0.950231,-0.68604 -2.572588,-1.84869 -2.892573,-2.07888 -0.004,-0.003 -0.0093,-0.003 -0.01477,-9.1e-4 z m 0.355331,1.86643 c -0.01586,0.003 -0.03065,0.0115 -0.03072,0.0231 -0.0044,0.53657 -0.04773,5.00992 -0.04873,7.16425 -1.15e-4,0.0643 -0.0033,0.14815 0.02039,0.21988 0.01178,0.0359 0.0315,0.0702 0.06439,0.0929 0.03275,0.0226 0.07657,0.0314 0.127896,0.0249 0.560025,-0.0709 1.264713,-0.48059 1.650537,-1.16585 0.169995,-0.30209 0.19054,-0.72162 0.134689,-1.15903 -0.05583,-0.4374 -0.189672,-0.89327 -0.336724,-1.26882 -0.505621,-1.2912 -1.373996,-3.48731 -1.544794,-3.92129 -0.0042,-0.0107 -0.02106,-0.0131 -0.03692,-0.0101 z m -0.457234,1.47118 c -0.008,7.6e-4 -0.01468,0.004 -0.01802,0.01 -0.30932,0.5327 -2.894755,4.96971 -4.120137,7.11796 -0.03669,0.0641 -0.08764,0.14605 -0.104857,0.23116 -0.0086,0.0425 -0.0084,0.0879 0.01153,0.12937 0.0198,0.0414 0.05821,0.0752 0.113126,0.0982 h 3.03e-4 c 0.59888,0.25052 1.534607,0.2462 2.308918,-0.21602 0.341249,-0.20382 0.60048,-0.61059 0.793368,-1.07891 0.192897,-0.46831 0.318412,-0.99981 0.385163,-1.45873 0.22951,-1.57791 0.611338,-4.2664 0.687626,-4.79724 0.0028,-0.0197 -0.0332,-0.0374 -0.05701,-0.0353 z m -1.242037,1.14034 c -0.64818,0.354 -6.056562,3.29679 -8.647887,4.73819 -0.07746,0.043 -0.180321,0.0954 -0.25077,0.1721 -0.03521,0.0384 -0.06355,0.0853 -0.06882,0.14036 -0.0053,0.055 0.01351,0.1137 0.05582,0.1718 h -3.02e-4 c 0.460172,0.6323 1.424824,1.21315 2.507408,1.22253 0.477106,0.004 0.995648,-0.25178 1.484242,-0.61246 0.488604,-0.36066 0.947401,-0.82849 1.300521,-1.25843 1.214134,-1.47828 3.273115,-4.00261 3.680624,-4.50051 0.0202,-0.0246 -0.03297,-0.0888 -0.06085,-0.0736 z m -13.157914,0.0834 c -0.103605,-0.001 -0.238602,-0.008 -0.354446,0.0297 -0.05791,0.0187 -0.113614,0.0502 -0.15064,0.10327 -0.03706,0.0529 -0.05165,0.12337 -0.04194,0.20711 h -3.03e-4 c 0.105336,0.91099 0.754029,2.06247 1.851389,2.69995 0.483612,0.28095 1.1591,0.32078 1.864089,0.23679 0.704995,-0.084 1.441015,-0.29446 2.04781,-0.52759 2.086364,-0.80154 5.634466,-2.17842 6.335718,-2.44921 0.0347,-0.0133 0.01765,-0.10972 -0.01949,-0.11038 -0.863703,-0.0154 -8.064184,-0.15478 -11.532189,-0.18961 z"
       id="path7138"
       inkscape:connector-curvature="0" />
    <text
       xml:space="preserve"
       style="font-style:normal;font-weight:normal;font-size:12.1442px;line-height:1;font-family:sans-serif;fill:#f2f2f2;fill-opacity:1;stroke:none;stroke-width:0.303606"
       x="49.259506"
       y="138.13385"
       id="text1709"><tspan
         sodipodi:role="line"
         id="tspan1707"
         style="font-style:normal;font-variant:normal;font-weight:normal;font-stretch:normal;font-family:serif;-inkscape-font-specification:serif;fill:#f2f2f2;fill-opacity:1;stroke-width:0.303606"
         x="49.259506"
         y="138.13385">ЦЕНТР</tspan><tspan
         sodipodi:role="line"
         style="font-style:normal;font-variant:normal;font-weight:normal;font-stretch:normal;font-size:19.8357px;font-family:serif;-inkscape-font-specification:serif;fill:#f2f2f2;fill-opacity:1;stroke-width:0.303606"
         x="49.259506"
         y="156.14375"
         id="tspan1711">ВТО</tspan></text>
  </g>
</svg>
